# xmcd
#
# Track frame offsets:
#	150
#	11414
#	22185
#	34380
#	48504
#	59001
#	72534
#	84896
#	99155
#	112868
#	125662
#	139257
#	152695
#	166446
#	180198
#	192910
#	205049
#	220156
#
# Disc length: 3112 seconds
#
# Revision: 0
# Processed by: cddbd v1.5.1PL2 Copyright (c) Steve Scherf et al.
# Submitted via: FairStars CD Ripper 1.01
#
DISCID=f70c2612
DTITLE=Various Artist - Feeling The Blues
DYEAR=2000
DGENRE=Blues
TTITLE0=Muddy Waters - Crawling Kingnake
TTITLE1=Howling Wolf - The Red Rooster
TTITLE2=Little Wolf - Juke
TTITLE3=Jimmy Witherspoon - Crying
TTITLE4=Jimmy McCracklin - Everybody Rock
TTITLE5=Albert King - Bad Luck Blues
TTITLE6=John Brim - Ice Cream Man
TTITLE7=Buddy Guy - Broken Hearted Blues
TTITLE8=Howlin Wolf - Three Hundred Pounds Of Joy
TTITLE9=Jimmie Rogers - Rock This House
TTITLE10=Lowell Fulson - Loving You
TTITLE11=Memphis Slim - Slim's Blues
TTITLE12=Elmore James - Dust My Broom
TTITLE13=Chuck Berry - Wee Wee Hours
TTITLE14=Sonny Boy Williamson - Keep Your Hand Out Of My Pocket
TTITLE15=Little Walter - Last Night
TTITLE16=Howlin' Wolf - Goin' Down Slow
TTITLE17=Muddy Waters - I Feel So Good
EXTD=
EXTT0=
EXTT1=
EXTT2=
EXTT3=
EXTT4=
EXTT5=
EXTT6=
EXTT7=
EXTT8=
EXTT9=
EXTT10=
EXTT11=
EXTT12=
EXTT13=
EXTT14=
EXTT15=
EXTT16=
EXTT17=
PLAYORDER=
